<svg xmlns="http://www.w3.org/2000/svg" viewBox="0 0 640 420">
  <defs><linearGradient id="bg" x1="0" x2="1" y1="0" y2="1"><stop stop-color="#dbf0c0"/><stop offset="1" stop-color="#a6dbe6"/></linearGradient></defs>
  <rect width="640" height="420" fill="url(#bg)"/>
  <rect x="236" y="82" width="168" height="258" rx="32" fill="#d9f4f3" opacity=".82"/>
  <path d="M254 174h132v135c0 20-16 36-36 36h-60c-20 0-36-16-36-36V174z" fill="#d1a13c"/>
  <rect x="254" y="142" width="132" height="42" fill="#fff4b6" opacity=".75"/>
  <g fill="#fff7cf"><circle cx="278" cy="218" r="10"/><circle cx="356" cy="242" r="8"/><circle cx="326" cy="290" r="9"/><circle cx="296" cy="270" r="6"/></g>
  <circle cx="246" cy="139" r="42" fill="#f0d64d"/>
  <circle cx="246" cy="139" r="27" fill="#fff3a2"/>
  <path d="M246 111v56M218 139h56M226 119l40 40M266 119l-40 40" stroke="#e0bd34" stroke-width="5"/>
  <path d="M346 58l-24 117" stroke="#2d4c58" stroke-width="9" stroke-linecap="round"/>
</svg>
